<svg id="Filled" height="512" viewBox="0 0 512 512" width="512" xmlns="http://www.w3.org/2000/svg"><path d="m328 23.69a64 64 0 0 0 -47.36 107.05l-56.64 84.95 16 8 24-8 64-64a64 64 0 0 0 0-128zm0 95.99a32 32 0 1 1 32-32 32 32 0 0 1 -32 32z" fill="#f0c647"/><path d="m424 119.68a64 64 0 0 0 -64 64l-64 64-8 24.007 8 15.993 84.95-56.64a64 64 0 1 0 43.05-111.36zm0 96.01a32 32 0 1 1 32-32 32 32 0 0 1 -32 32z" fill="#f0c647"/><path d="m296.003 247.683v40l-32 24-208 176-32 .003v-72.003l200-200h40v32z" fill="#e2d2c2"/><path d="m264.003 247.683v64l-208 176-32 .003 128-200.003 72-72h40z" fill="#fae8d8"/><circle cx="216.003" cy="287.683" fill="#e2d2c2" r="16"/><path d="m216 263.683a24 24 0 1 0 24 24 24.027 24.027 0 0 0 -24-24zm0 32a8 8 0 1 1 8-8 8.009 8.009 0 0 1 -8 8z"/><path d="m328 127.68a40 40 0 1 0 -40-40 40.046 40.046 0 0 0 40 40zm0-64a24 24 0 1 1 -24 24 24.027 24.027 0 0 1 24-24z"/><path d="m424 111.68a71.55 71.55 0 0 0 -31.062 7.066 71.988 71.988 0 1 0 -122.262 12.518l-52.883 79.315-199.446 199.446a8 8 0 0 0 -2.347 5.658v72a8 8 0 0 0 8 8h32a8 8 0 0 0 5.12-1.855l239.7-199.753 79.607-53.075a72 72 0 1 0 43.573-129.32zm-131.317 128h-20.683v-20.68l59.389-59.39a71.473 71.473 0 0 0 27.674-6.991 71.472 71.472 0 0 0 -6.988 27.667zm-240.033 240h-14.027l100.821-157.531c-7.827 37.122-29.097 98.782-86.794 157.534zm94.983-125.591c9.867-31.236 11.867-54.551 12.267-62.989l67.417-67.417h28.683v86.917l-144.229 120.2a331.765 331.765 0 0 0 35.862-76.708zm138.926-228.732a56 56 0 1 1 41.441 18.333 8 8 0 0 0 -5.657 2.343l-61.65 61.65h-21.739l48.342-72.5a8 8 0 0 0 -.737-9.826zm-181.05 220.134-73.509 114.854v-41.345zm182.491-61.555-16 13.333v-41.586h16zm136-44.256a55.862 55.862 0 0 1 -37.667-14.559 8 8 0 0 0 -9.82-.737l-72.513 48.344v-21.738l61.653-61.653a8 8 0 0 0 2.347-5.657 56 56 0 1 1 56 56z"/><path d="m424 143.69a40 40 0 1 0 40 40 40.046 40.046 0 0 0 -40-40zm0 64a24 24 0 1 1 24-24 24.027 24.027 0 0 1 -24 24z"/></svg>